# Blender v2.79 (sub 0) OBJ File: ''
# www.blender.org
mtllib circle.mtl
o Circle
v 0.000000 0.000000 -1.500000
v -0.147026 0.000000 -1.492777
v -0.292636 0.000000 -1.471178
v -0.435427 0.000000 -1.435410
v -0.574025 0.000000 -1.385819
v -0.707095 0.000000 -1.322882
v -0.833355 0.000000 -1.247204
v -0.951590 0.000000 -1.159516
v -1.060660 0.000000 -1.060660
v -1.159516 0.000000 -0.951590
v -1.247204 0.000000 -0.833355
v -1.322882 0.000000 -0.707095
v -1.385819 0.000000 -0.574025
v -1.435410 0.000000 -0.435427
v -1.471178 0.000000 -0.292635
v -1.492777 0.000000 -0.147026
v -1.500000 0.000000 0.000000
v -1.492777 0.000000 0.147026
v -1.471178 0.000000 0.292636
v -1.435410 0.000000 0.435427
v -1.385819 0.000000 0.574026
v -1.322882 0.000000 0.707096
v -1.247204 0.000000 0.833356
v -1.159515 0.000000 0.951590
v -1.060660 0.000000 1.060661
v -0.951589 0.000000 1.159516
v -0.833355 0.000000 1.247205
v -0.707094 0.000000 1.322882
v -0.574024 0.000000 1.385820
v -0.435426 0.000000 1.435411
v -0.292634 0.000000 1.471178
v -0.147025 0.000000 1.492777
v 0.000001 0.000000 1.500000
v 0.147027 0.000000 1.492777
v 0.292637 0.000000 1.471178
v 0.435428 0.000000 1.435410
v 0.574026 0.000000 1.385819
v 0.707096 0.000000 1.322881
v 0.833357 0.000000 1.247204
v 0.951591 0.000000 1.159515
v 1.060661 0.000000 1.060659
v 1.159517 0.000000 0.951589
v 1.247205 0.000000 0.833354
v 1.322882 0.000000 0.707094
v 1.385820 0.000000 0.574025
v 1.435410 0.000000 0.435427
v 1.471178 0.000000 0.292636
v 1.492777 0.000000 0.147026
v 1.500000 0.000000 0.000001
v 1.492777 0.000000 -0.147025
v 1.471178 0.000000 -0.292634
v 1.435411 0.000000 -0.435425
v 1.385820 0.000000 -0.574023
v 1.322883 0.000000 -0.707093
v 1.247206 0.000000 -0.833353
v 1.159517 0.000000 -0.951588
v 1.060662 0.000000 -1.060658
v 0.951593 0.000000 -1.159513
v 0.833358 0.000000 -1.247202
v 0.707099 0.000000 -1.322880
v 0.574029 0.000000 -1.385818
v 0.435431 0.000000 -1.435409
v 0.292640 0.000000 -1.471177
v 0.147031 0.000000 -1.492777
vt 0.500000 1.000000
vt 0.450991 0.997592
vt 0.402455 0.990393
vt 0.354858 0.978470
vt 0.308658 0.961940
vt 0.264302 0.940961
vt 0.222215 0.915735
vt 0.182803 0.886505
vt 0.146447 0.853553
vt 0.113495 0.817197
vt 0.084265 0.777785
vt 0.059039 0.735698
vt 0.038060 0.691342
vt 0.021530 0.645142
vt 0.009607 0.597545
vt 0.002408 0.549008
vt 0.000000 0.500000
vt 0.002408 0.450991
vt 0.009607 0.402455
vt 0.021530 0.354858
vt 0.038060 0.308658
vt 0.059039 0.264301
vt 0.084265 0.222215
vt 0.113495 0.182803
vt 0.146447 0.146446
vt 0.182804 0.113495
vt 0.222215 0.084265
vt 0.264302 0.059039
vt 0.308659 0.038060
vt 0.354858 0.021530
vt 0.402455 0.009607
vt 0.450992 0.002408
vt 0.500000 0.000000
vt 0.549009 0.002408
vt 0.597546 0.009607
vt 0.645143 0.021530
vt 0.691342 0.038060
vt 0.735699 0.059040
vt 0.777786 0.084265
vt 0.817197 0.113495
vt 0.853554 0.146447
vt 0.886506 0.182804
vt 0.915735 0.222215
vt 0.940961 0.264302
vt 0.961940 0.308658
vt 0.978470 0.354858
vt 0.990393 0.402455
vt 0.997592 0.450991
vt 1.000000 0.500000
vt 0.997592 0.549008
vt 0.990393 0.597545
vt 0.978470 0.645142
vt 0.961940 0.691341
vt 0.940961 0.735698
vt 0.915735 0.777784
vt 0.886506 0.817196
vt 0.853554 0.853553
vt 0.817198 0.886505
vt 0.777786 0.915734
vt 0.735700 0.940960
vt 0.691343 0.961939
vt 0.645144 0.978470
vt 0.597547 0.990392
vt 0.549010 0.997592
vn 0.0000 1.0000 0.0000
usemtl None
s off
f 1/1/1 2/2/1 3/3/1 4/4/1 5/5/1 6/6/1 7/7/1 8/8/1 9/9/1 10/10/1 11/11/1 12/12/1 13/13/1 14/14/1 15/15/1 16/16/1 17/17/1 18/18/1 19/19/1 20/20/1 21/21/1 22/22/1 23/23/1 24/24/1 25/25/1 26/26/1 27/27/1 28/28/1 29/29/1 30/30/1 31/31/1 32/32/1 33/33/1 34/34/1 35/35/1 36/36/1 37/37/1 38/38/1 39/39/1 40/40/1 41/41/1 42/42/1 43/43/1 44/44/1 45/45/1 46/46/1 47/47/1 48/48/1 49/49/1 50/50/1 51/51/1 52/52/1 53/53/1 54/54/1 55/55/1 56/56/1 57/57/1 58/58/1 59/59/1 60/60/1 61/61/1 62/62/1 63/63/1 64/64/1
