# Blender v2.79 (sub 0) OBJ File: ''
# www.blender.org
mtllib circleBahar.mtl
o Circle
v 0.000000 0.000000 -1.500000
v -0.147026 0.000000 -1.492777
v -0.292636 0.000000 -1.471178
v -0.435427 0.000000 -1.435410
v -0.574025 0.000000 -1.385819
v -0.707095 0.000000 -1.322882
v -0.833355 0.000000 -1.247204
v -0.951590 0.000000 -1.159516
v -1.060660 0.000000 -1.060660
v -1.159516 0.000000 -0.951590
v -1.247204 0.000000 -0.833355
v -1.322882 0.000000 -0.707095
v -1.385819 0.000000 -0.574025
v -1.435410 0.000000 -0.435427
v -1.471178 0.000000 -0.292635
v -1.492777 0.000000 -0.147026
v -1.500000 0.000000 0.000000
v -1.492777 0.000000 0.147026
v -1.471178 0.000000 0.292636
v -1.435410 0.000000 0.435427
v -1.385819 0.000000 0.574026
v -1.322882 0.000000 0.707096
v -1.247204 0.000000 0.833356
v -1.159515 0.000000 0.951590
v -1.060660 0.000000 1.060661
v -0.951589 0.000000 1.159516
v -0.833355 0.000000 1.247205
v -0.707094 0.000000 1.322882
v -0.574024 0.000000 1.385820
v -0.435426 0.000000 1.435411
v -0.292634 0.000000 1.471178
v -0.147025 0.000000 1.492777
v 0.000001 0.000000 1.500000
v 0.147027 0.000000 1.492777
v 0.292637 0.000000 1.471178
v 0.435428 0.000000 1.435410
v 0.574026 0.000000 1.385819
v 0.707096 0.000000 1.322881
v 0.833357 0.000000 1.247204
v 0.951591 0.000000 1.159515
v 1.060661 0.000000 1.060659
v 1.159517 0.000000 0.951589
v 1.247205 0.000000 0.833354
v 1.322882 0.000000 0.707094
v 1.385820 0.000000 0.574025
v 1.435410 0.000000 0.435427
v 1.471178 0.000000 0.292636
v 1.492777 0.000000 0.147026
v 1.500000 0.000000 0.000001
v 1.492777 0.000000 -0.147025
v 1.471178 0.000000 -0.292634
v 1.435411 0.000000 -0.435425
v 1.385820 0.000000 -0.574023
v 1.322883 0.000000 -0.707093
v 1.247206 0.000000 -0.833353
v 1.159517 0.000000 -0.951588
v 1.060662 0.000000 -1.060658
v 0.951593 0.000000 -1.159513
v 0.833358 0.000000 -1.247202
v 0.707099 0.000000 -1.322880
v 0.574029 0.000000 -1.385818
v 0.435431 0.000000 -1.435409
v 0.292640 0.000000 -1.471177
v 0.147031 0.000000 -1.492777
v -0.000000 0.000000 -1.715978
v -0.168195 0.000000 -1.707715
v -0.334771 0.000000 -1.683006
v -0.498122 0.000000 -1.642088
v -0.656676 0.000000 -1.585357
v -0.808906 0.000000 -1.513357
v -0.953346 0.000000 -1.426783
v -1.088605 0.000000 -1.326469
v -1.213380 0.000000 -1.213380
v -1.326469 0.000000 -1.088605
v -1.426783 0.000000 -0.953346
v -1.513357 0.000000 -0.808906
v -1.585357 0.000000 -0.656676
v -1.642088 0.000000 -0.498122
v -1.683006 0.000000 -0.334771
v -1.707715 0.000000 -0.168195
v -1.715978 0.000000 0.000000
v -1.707715 0.000000 0.168196
v -1.683006 0.000000 0.334771
v -1.642088 0.000000 0.498122
v -1.585357 0.000000 0.656677
v -1.513357 0.000000 0.808907
v -1.426783 0.000000 0.953347
v -1.326468 0.000000 1.088605
v -1.213379 0.000000 1.213380
v -1.088604 0.000000 1.326469
v -0.953345 0.000000 1.426784
v -0.808906 0.000000 1.513358
v -0.656675 0.000000 1.585357
v -0.498121 0.000000 1.642089
v -0.334770 0.000000 1.683006
v -0.168194 0.000000 1.707715
v 0.000001 0.000000 1.715978
v 0.168197 0.000000 1.707715
v 0.334772 0.000000 1.683005
v 0.498123 0.000000 1.642088
v 0.656678 0.000000 1.585356
v 0.808908 0.000000 1.513356
v 0.953347 0.000000 1.426782
v 1.088606 0.000000 1.326468
v 1.213381 0.000000 1.213378
v 1.326470 0.000000 1.088603
v 1.426784 0.000000 0.953345
v 1.513358 0.000000 0.808905
v 1.585357 0.000000 0.656676
v 1.642088 0.000000 0.498122
v 1.683005 0.000000 0.334771
v 1.707715 0.000000 0.168196
v 1.715978 0.000000 0.000001
v 1.707715 0.000000 -0.168194
v 1.683006 0.000000 -0.334769
v 1.642089 0.000000 -0.498120
v 1.585357 0.000000 -0.656674
v 1.513358 0.000000 -0.808904
v 1.426785 0.000000 -0.953344
v 1.326471 0.000000 -1.088602
v 1.213382 0.000000 -1.213377
v 1.088608 0.000000 -1.326466
v 0.953350 0.000000 -1.426781
v 0.808910 0.000000 -1.513355
v 0.656681 0.000000 -1.585355
v 0.498127 0.000000 -1.642087
v 0.334776 0.000000 -1.683005
v 0.168201 0.000000 -1.707714
vt 0.000000 0.000000
vt 0.000000 0.000000
vt 0.000000 0.000000
vt 0.000000 0.000000
vt 0.000000 0.000000
vt 0.000000 0.000000
vt 0.000000 0.000000
vt 0.000000 0.000000
vt 0.000000 0.000000
vt 0.000000 0.000000
vt 0.000000 0.000000
vt 0.000000 0.000000
vt 0.000000 0.000000
vt 0.000000 0.000000
vt 0.000000 0.000000
vt 0.000000 0.000000
vt 0.000000 0.000000
vt 0.000000 0.000000
vt 0.000000 0.000000
vt 0.000000 0.000000
vt 0.000000 0.000000
vt 0.000000 0.000000
vt 0.000000 0.000000
vt 0.000000 0.000000
vt 0.000000 0.000000
vt 0.000000 0.000000
vt 0.000000 0.000000
vt 0.000000 0.000000
vt 0.000000 0.000000
vt 0.000000 0.000000
vt 0.000000 0.000000
vt 0.000000 0.000000
vt 0.000000 0.000000
vt 0.000000 0.000000
vt 0.000000 0.000000
vt 0.000000 0.000000
vt 0.000000 0.000000
vt 0.000000 0.000000
vt 0.000000 0.000000
vt 0.000000 0.000000
vt 0.000000 0.000000
vt 0.000000 0.000000
vt 0.000000 0.000000
vt 0.000000 0.000000
vt 0.000000 0.000000
vt 0.000000 0.000000
vt 0.000000 0.000000
vt 0.000000 0.000000
vt 0.000000 0.000000
vt 0.000000 0.000000
vt 0.000000 0.000000
vt 0.000000 0.000000
vt 0.000000 0.000000
vt 0.000000 0.000000
vt 0.000000 0.000000
vt 0.000000 0.000000
vt 0.000000 0.000000
vt 0.000000 0.000000
vt 0.000000 0.000000
vt 0.000000 0.000000
vt 0.000000 0.000000
vt 0.000000 0.000000
vt 0.000000 0.000000
vt 0.000000 0.000000
vt 0.000000 0.000000
vt 0.000000 0.000000
vt 0.000000 0.000000
vt 0.000000 0.000000
vt 0.000000 0.000000
vt 0.000000 0.000000
vt 0.000000 0.000000
vt 0.000000 0.000000
vt 0.000000 0.000000
vt 0.000000 0.000000
vt 0.000000 0.000000
vt 0.000000 0.000000
vt 0.000000 0.000000
vt 0.000000 0.000000
vt 0.000000 0.000000
vt 0.000000 0.000000
vt 0.000000 0.000000
vt 0.000000 0.000000
vt 0.000000 0.000000
vt 0.000000 0.000000
vt 0.000000 0.000000
vt 0.000000 0.000000
vt 0.000000 0.000000
vt 0.000000 0.000000
vt 0.000000 0.000000
vt 0.000000 0.000000
vt 0.000000 0.000000
vt 0.000000 0.000000
vt 0.000000 0.000000
vt 0.000000 0.000000
vt 0.000000 0.000000
vt 0.000000 0.000000
vt 0.000000 0.000000
vt 0.000000 0.000000
vt 0.000000 0.000000
vt 0.000000 0.000000
vt 0.000000 0.000000
vt 0.000000 0.000000
vt 0.000000 0.000000
vt 0.000000 0.000000
vt 0.000000 0.000000
vt 0.000000 0.000000
vt 0.000000 0.000000
vt 0.000000 0.000000
vt 0.000000 0.000000
vt 0.000000 0.000000
vt 0.000000 0.000000
vt 0.000000 0.000000
vt 0.000000 0.000000
vt 0.000000 0.000000
vt 0.000000 0.000000
vt 0.000000 0.000000
vt 0.000000 0.000000
vt 0.000000 0.000000
vt 0.000000 0.000000
vt 0.000000 0.000000
vt 0.000000 0.000000
vt 0.000000 0.000000
vt 0.000000 0.000000
vt 0.000000 0.000000
vt 0.000000 0.000000
vt 0.000000 0.000000
vt 0.000000 0.000000
vt 0.000000 0.000000
vn 0.0000 1.0000 0.0000
usemtl None
s off
f 7/1/1 6/2/1 70/3/1 71/4/1
f 60/5/1 59/6/1 123/7/1 124/8/1
f 34/9/1 33/10/1 97/11/1 98/12/1
f 8/13/1 7/1/1 71/4/1 72/14/1
f 61/15/1 60/5/1 124/8/1 125/16/1
f 35/17/1 34/9/1 98/12/1 99/18/1
f 9/19/1 8/13/1 72/14/1 73/20/1
f 62/21/1 61/15/1 125/16/1 126/22/1
f 36/23/1 35/17/1 99/18/1 100/24/1
f 10/25/1 9/19/1 73/20/1 74/26/1
f 63/27/1 62/21/1 126/22/1 127/28/1
f 37/29/1 36/23/1 100/24/1 101/30/1
f 11/31/1 10/25/1 74/26/1 75/32/1
f 64/33/1 63/27/1 127/28/1 128/34/1
f 38/35/1 37/29/1 101/30/1 102/36/1
f 12/37/1 11/31/1 75/32/1 76/38/1
f 1/39/1 64/33/1 128/34/1 65/40/1
f 39/41/1 38/35/1 102/36/1 103/42/1
f 13/43/1 12/37/1 76/38/1 77/44/1
f 40/45/1 39/41/1 103/42/1 104/46/1
f 14/47/1 13/43/1 77/44/1 78/48/1
f 41/49/1 40/45/1 104/46/1 105/50/1
f 15/51/1 14/47/1 78/48/1 79/52/1
f 42/53/1 41/49/1 105/50/1 106/54/1
f 16/55/1 15/51/1 79/52/1 80/56/1
f 43/57/1 42/53/1 106/54/1 107/58/1
f 17/59/1 16/55/1 80/56/1 81/60/1
f 44/61/1 43/57/1 107/58/1 108/62/1
f 18/63/1 17/59/1 81/60/1 82/64/1
f 45/65/1 44/61/1 108/62/1 109/66/1
f 19/67/1 18/63/1 82/64/1 83/68/1
f 46/69/1 45/65/1 109/66/1 110/70/1
f 20/71/1 19/67/1 83/68/1 84/72/1
f 47/73/1 46/69/1 110/70/1 111/74/1
f 21/75/1 20/71/1 84/72/1 85/76/1
f 48/77/1 47/73/1 111/74/1 112/78/1
f 22/79/1 21/75/1 85/76/1 86/80/1
f 49/81/1 48/77/1 112/78/1 113/82/1
f 23/83/1 22/79/1 86/80/1 87/84/1
f 50/85/1 49/81/1 113/82/1 114/86/1
f 24/87/1 23/83/1 87/84/1 88/88/1
f 51/89/1 50/85/1 114/86/1 115/90/1
f 25/91/1 24/87/1 88/88/1 89/92/1
f 52/93/1 51/89/1 115/90/1 116/94/1
f 26/95/1 25/91/1 89/92/1 90/96/1
f 53/97/1 52/93/1 116/94/1 117/98/1
f 27/99/1 26/95/1 90/96/1 91/100/1
f 54/101/1 53/97/1 117/98/1 118/102/1
f 28/103/1 27/99/1 91/100/1 92/104/1
f 2/105/1 1/39/1 65/40/1 66/106/1
f 55/107/1 54/101/1 118/102/1 119/108/1
f 29/109/1 28/103/1 92/104/1 93/110/1
f 3/111/1 2/105/1 66/106/1 67/112/1
f 56/113/1 55/107/1 119/108/1 120/114/1
f 30/115/1 29/109/1 93/110/1 94/116/1
f 4/117/1 3/111/1 67/112/1 68/118/1
f 57/119/1 56/113/1 120/114/1 121/120/1
f 31/121/1 30/115/1 94/116/1 95/122/1
f 5/123/1 4/117/1 68/118/1 69/124/1
f 58/125/1 57/119/1 121/120/1 122/126/1
f 32/127/1 31/121/1 95/122/1 96/128/1
f 6/2/1 5/123/1 69/124/1 70/3/1
f 59/6/1 58/125/1 122/126/1 123/7/1
f 33/10/1 32/127/1 96/128/1 97/11/1
