# Blender v2.79 (sub 0) OBJ File: 'untitled.blend'
# www.blender.org
mtllib Dona.mtl
o Plane
v 0.500000 -0.019579 -0.500000
v 0.500000 -0.055517 -0.250000
v 0.750000 0.030733 -0.500000
v 0.500000 0.030733 -0.750000
v 0.250000 -0.055517 -0.500000
v 0.250000 -0.094783 -0.250000
v 0.750000 -0.000544 -0.250000
v 0.750000 0.074520 -0.750000
v 0.250000 -0.000544 -0.750000
v -0.500000 -0.019579 -0.500000
v -0.500000 -0.055517 -0.250000
v -0.250000 -0.055517 -0.500000
v -0.500000 0.030733 -0.750000
v -0.750000 0.030733 -0.500000
v -0.750000 -0.000544 -0.250000
v -0.250000 -0.094783 -0.250000
v -0.250000 -0.000544 -0.750000
v -0.750000 0.074520 -0.750000
v -0.500000 -0.019579 0.500000
v -0.500000 0.030733 0.750000
v -0.250000 -0.055517 0.500000
v -0.500000 -0.055517 0.250000
v -0.750000 0.030733 0.500000
v -0.750000 0.074520 0.750000
v -0.250000 -0.000544 0.750000
v -0.250000 -0.094783 0.250000
v -0.750000 -0.000544 0.250000
v 0.500000 -0.019579 0.500000
v 0.500000 0.030733 0.750000
v 0.750000 0.030733 0.500000
v 0.500000 -0.055517 0.250000
v 0.250000 -0.055517 0.500000
v 0.250000 -0.000544 0.750000
v 0.750000 0.074520 0.750000
v 0.750000 -0.000544 0.250000
v 0.250000 -0.094783 0.250000
v -1.000000 0.062282 0.250000
v -1.000000 0.088232 0.500000
v -1.000000 0.124564 0.750000
v 0.250000 0.062282 1.000000
v 0.500000 0.088232 1.000000
v 0.750000 0.124564 1.000000
v 1.000000 0.062282 -0.250000
v 1.000000 0.088232 -0.500000
v 1.000000 0.124564 -0.750000
v -0.250000 0.062282 -1.000000
v -0.500000 0.088232 -1.000000
v -0.750000 0.124564 -1.000000
v -1.000000 0.124564 -0.750000
v -1.000000 0.088232 -0.500000
v -1.000000 0.062282 -0.250000
v -0.750000 0.124564 1.000000
v -0.500000 0.088232 1.000000
v -0.250000 0.062282 1.000000
v 1.000000 0.124564 0.750000
v 1.000000 0.088232 0.500000
v 1.000000 0.062282 0.250000
v 0.750000 0.124564 -1.000000
v 0.500000 0.088232 -1.000000
v 0.250000 0.062282 -1.000000
v 0.000000 -0.110489 -0.250000
v 0.000000 -0.069891 -0.500000
v 0.000000 -0.013055 -0.750000
v 0.000000 -0.013055 0.750000
v 0.000000 -0.069891 0.500000
v 0.000000 -0.110489 0.250000
v -0.250000 -0.110489 0.000000
v -0.500000 -0.069891 0.000000
v -0.750000 -0.013055 0.000000
v 0.750000 -0.013055 0.000000
v 0.500000 -0.069891 0.000000
v 0.250000 -0.110489 0.000000
v -0.947305 0.148581 0.947305
v 0.947305 0.148581 0.947305
v -0.947305 0.148581 -0.947305
v 0.947305 0.148581 -0.947305
v -1.000000 0.051901 0.000000
v 0.000000 0.051901 1.000000
v 1.000000 0.051901 0.000000
v 0.000000 0.051901 -1.000000
v 0.000000 -0.126728 0.000000
vt 0.750000 0.750000
vt 0.625000 0.750000
vt 0.625000 0.625000
vt 0.750000 0.625000
vt 0.625000 0.500000
vt 0.750000 0.500000
vt 0.500000 0.750000
vt 0.500000 0.625000
vt 0.500000 0.500000
vt 0.875000 0.625000
vt 0.875000 0.750000
vt 1.000000 0.625000
vt 1.000000 0.750000
vt 0.875000 0.500000
vt 1.000000 0.500000
vt 0.875000 0.875000
vt 0.750000 0.875000
vt 0.875000 1.000000
vt 0.750000 1.000000
vt 1.000000 0.875000
vt 0.973652 0.973652
vt 0.625000 0.875000
vt 0.500000 0.875000
vt 0.625000 1.000000
vt 0.500000 1.000000
vt 0.250000 0.750000
vt 0.125000 0.750000
vt 0.125000 0.625000
vt 0.250000 0.625000
vt 0.125000 0.500000
vt 0.250000 0.500000
vt 0.000000 0.750000
vt 0.000000 0.625000
vt 0.000000 0.500000
vt 0.375000 0.625000
vt 0.375000 0.750000
vt 0.375000 0.500000
vt 0.375000 0.875000
vt 0.250000 0.875000
vt 0.375000 1.000000
vt 0.250000 1.000000
vt 0.125000 0.875000
vt 0.000000 0.875000
vt 0.125000 1.000000
vt 0.026348 0.973652
vt 0.250000 0.250000
vt 0.125000 0.250000
vt 0.125000 0.125000
vt 0.250000 0.125000
vt 0.125000 0.000000
vt 0.250000 0.000000
vt 0.000000 0.250000
vt 0.000000 0.125000
vt 0.026348 0.026348
vt 0.375000 0.125000
vt 0.375000 0.250000
vt 0.500000 0.125000
vt 0.500000 0.250000
vt 0.375000 0.000000
vt 0.500000 0.000000
vt 0.375000 0.375000
vt 0.250000 0.375000
vt 0.500000 0.375000
vt 0.125000 0.375000
vt 0.000000 0.375000
vt 0.750000 0.250000
vt 0.625000 0.250000
vt 0.625000 0.125000
vt 0.750000 0.125000
vt 0.625000 0.000000
vt 0.750000 0.000000
vt 0.875000 0.125000
vt 0.875000 0.250000
vt 1.000000 0.125000
vt 1.000000 0.250000
vt 0.875000 0.000000
vt 0.973652 0.026348
vt 0.875000 0.375000
vt 0.750000 0.375000
vt 1.000000 0.375000
vt 0.625000 0.375000
vn -0.1660 0.9720 0.1660
vn -0.0974 0.9785 0.1818
vn -0.1070 0.9885 0.1070
vn -0.1818 0.9785 0.0974
vn -0.1107 0.9938 0.0000
vn -0.1878 0.9822 0.0000
vn 0.0000 0.9822 0.1878
vn 0.0000 0.9938 0.1107
vn 0.0000 1.0000 0.0000
vn -0.2256 0.9705 0.0845
vn -0.2067 0.9677 0.1445
vn -0.2400 0.9676 0.0779
vn -0.2200 0.9664 0.1331
vn -0.2328 0.9725 0.0000
vn -0.2476 0.9688 0.0000
vn -0.1815 0.9665 0.1815
vn -0.1445 0.9677 0.2067
vn -0.1671 0.9663 0.1955
vn -0.1331 0.9664 0.2200
vn -0.1955 0.9663 0.1671
vn -0.1814 0.9665 0.1814
vn -0.0845 0.9705 0.2256
vn 0.0000 0.9725 0.2328
vn -0.0779 0.9676 0.2400
vn 0.0000 0.9688 0.2476
vn 0.1660 0.9720 0.1660
vn 0.2067 0.9677 0.1445
vn 0.2256 0.9705 0.0845
vn 0.1818 0.9785 0.0974
vn 0.2328 0.9725 0.0000
vn 0.1878 0.9822 0.0000
vn 0.2200 0.9664 0.1331
vn 0.2400 0.9676 0.0779
vn 0.2476 0.9688 0.0000
vn 0.1070 0.9885 0.1070
vn 0.0974 0.9785 0.1818
vn 0.1107 0.9938 0.0000
vn 0.0845 0.9705 0.2256
vn 0.1445 0.9677 0.2067
vn 0.0779 0.9676 0.2400
vn 0.1331 0.9664 0.2200
vn 0.1815 0.9665 0.1815
vn 0.1955 0.9663 0.1671
vn 0.1671 0.9663 0.1955
vn 0.1814 0.9665 0.1814
vn 0.1660 0.9720 -0.1660
vn 0.2067 0.9677 -0.1445
vn 0.1815 0.9665 -0.1815
vn 0.1445 0.9677 -0.2067
vn 0.1671 0.9663 -0.1955
vn 0.1331 0.9664 -0.2200
vn 0.2200 0.9664 -0.1331
vn 0.1955 0.9663 -0.1671
vn 0.1814 0.9665 -0.1814
vn 0.0845 0.9705 -0.2256
vn 0.0974 0.9785 -0.1818
vn 0.0000 0.9725 -0.2328
vn 0.0000 0.9822 -0.1878
vn 0.0779 0.9676 -0.2400
vn 0.0000 0.9688 -0.2476
vn 0.1070 0.9885 -0.1070
vn 0.1818 0.9785 -0.0974
vn 0.0000 0.9938 -0.1107
vn 0.2256 0.9705 -0.0845
vn 0.2400 0.9676 -0.0779
vn -0.1660 0.9720 -0.1660
vn -0.0974 0.9785 -0.1818
vn -0.0845 0.9705 -0.2256
vn -0.1445 0.9677 -0.2067
vn -0.0779 0.9676 -0.2400
vn -0.1331 0.9664 -0.2200
vn -0.1815 0.9665 -0.1815
vn -0.2067 0.9677 -0.1445
vn -0.1955 0.9663 -0.1671
vn -0.2200 0.9664 -0.1331
vn -0.1671 0.9663 -0.1955
vn -0.1814 0.9665 -0.1814
vn -0.2256 0.9705 -0.0845
vn -0.1818 0.9785 -0.0974
vn -0.2400 0.9676 -0.0779
vn -0.1070 0.9885 -0.1070
usemtl None
s 1
f 1/1/1 5/2/2 6/3/3 2/4/4
f 2/4/4 6/3/3 72/5/5 71/6/6
f 5/2/2 62/7/7 61/8/8 6/3/3
f 6/3/3 61/8/8 81/9/9 72/5/5
f 1/1/1 2/4/4 7/10/10 3/11/11
f 3/11/11 7/10/10 43/12/12 44/13/13
f 2/4/4 71/6/6 70/14/14 7/10/10
f 7/10/10 70/14/14 79/15/15 43/12/12
f 1/1/1 3/11/11 8/16/16 4/17/17
f 4/17/17 8/16/16 58/18/18 59/19/19
f 3/11/11 44/13/13 45/20/20 8/16/16
f 8/16/16 45/20/20 76/21/21 58/18/18
f 1/1/1 4/17/17 9/22/22 5/2/2
f 5/2/2 9/22/22 63/23/23 62/7/7
f 4/17/17 59/19/19 60/24/24 9/22/22
f 9/22/22 60/24/24 80/25/25 63/23/23
f 10/26/26 14/27/27 15/28/28 11/29/29
f 11/29/29 15/28/28 69/30/30 68/31/31
f 14/27/27 50/32/32 51/33/33 15/28/28
f 15/28/28 51/33/33 77/34/34 69/30/30
f 10/26/26 11/29/29 16/35/35 12/36/36
f 12/36/36 16/35/35 61/8/8 62/7/7
f 11/29/29 68/31/31 67/37/37 16/35/35
f 16/35/35 67/37/37 81/9/9 61/8/8
f 10/26/26 12/36/36 17/38/38 13/39/39
f 13/39/39 17/38/38 46/40/40 47/41/41
f 12/36/36 62/7/7 63/23/23 17/38/38
f 17/38/38 63/23/23 80/25/25 46/40/40
f 10/26/26 13/39/39 18/42/42 14/27/27
f 14/27/27 18/42/42 49/43/43 50/32/32
f 13/39/39 47/41/41 48/44/44 18/42/42
f 18/42/42 48/44/44 75/45/45 49/43/43
f 19/46/46 23/47/47 24/48/48 20/49/49
f 20/49/49 24/48/48 52/50/50 53/51/51
f 23/47/47 38/52/52 39/53/53 24/48/48
f 24/48/48 39/53/53 73/54/54 52/50/50
f 19/46/46 20/49/49 25/55/55 21/56/56
f 21/56/56 25/55/55 64/57/57 65/58/58
f 20/49/49 53/51/51 54/59/59 25/55/55
f 25/55/55 54/59/59 78/60/60 64/57/57
f 19/46/46 21/56/56 26/61/61 22/62/62
f 22/62/62 26/61/61 67/37/37 68/31/31
f 21/56/56 65/58/58 66/63/63 26/61/61
f 26/61/61 66/63/63 81/9/9 67/37/37
f 19/46/46 22/62/62 27/64/64 23/47/47
f 23/47/47 27/64/64 37/65/65 38/52/52
f 22/62/62 68/31/31 69/30/30 27/64/64
f 27/64/64 69/30/30 77/34/34 37/65/65
f 28/66/66 32/67/67 33/68/68 29/69/69
f 29/69/69 33/68/68 40/70/70 41/71/71
f 32/67/67 65/58/58 64/57/57 33/68/68
f 33/68/68 64/57/57 78/60/60 40/70/70
f 28/66/66 29/69/69 34/72/72 30/73/73
f 30/73/73 34/72/72 55/74/74 56/75/75
f 29/69/69 41/71/71 42/76/76 34/72/72
f 34/72/72 42/76/76 74/77/77 55/74/74
f 28/66/66 30/73/73 35/78/78 31/79/79
f 31/79/79 35/78/78 70/14/14 71/6/6
f 30/73/73 56/75/75 57/80/80 35/78/78
f 35/78/78 57/80/80 79/15/15 70/14/14
f 28/66/66 31/79/79 36/81/81 32/67/67
f 32/67/67 36/81/81 66/63/63 65/58/58
f 31/79/79 71/6/6 72/5/5 36/81/81
f 36/81/81 72/5/5 81/9/9 66/63/63
