# Blender v2.79 (sub 0) OBJ File: ''
# www.blender.org
mtllib Level beech wali.mtl
o Plane.014
v 0.730564 -0.000060 0.972862
v 0.777603 -0.000060 0.972862
v 0.730564 -0.000060 1.198767
v 0.777603 -0.000060 1.198768
v 0.730564 0.237940 0.972862
v 0.777603 0.237940 0.972862
v 0.730564 0.237940 1.198767
v 0.777603 0.237940 1.198768
vn 0.0000 -1.0000 -0.0000
vn 0.0000 1.0000 0.0000
vn 0.0000 0.0000 -1.0000
vn -1.0000 0.0000 0.0000
vn 1.0000 0.0000 -0.0000
vn -0.0000 0.0000 1.0000
usemtl Wall
s off
f 3//1 1//1 2//1 4//1
f 7//2 8//2 6//2 5//2
f 2//3 1//3 5//3 6//3
f 1//4 3//4 7//4 5//4
f 4//5 2//5 6//5 8//5
f 3//6 4//6 8//6 7//6
o Plane.013
v -1.030291 -0.000060 -1.206353
v -0.983252 -0.000060 -1.206353
v -1.030291 -0.000060 -0.980447
v -0.983252 -0.000060 -0.980447
v -1.030291 0.237940 -1.206353
v -0.983252 0.237940 -1.206353
v -1.030291 0.237940 -0.980447
v -0.983252 0.237940 -0.980447
vn 0.0000 -1.0000 -0.0000
vn 0.0000 1.0000 0.0000
vn 0.0000 0.0000 -1.0000
vn -1.0000 0.0000 0.0000
vn 1.0000 0.0000 -0.0000
vn -0.0000 0.0000 1.0000
usemtl Wall
s off
f 11//7 9//7 10//7 12//7
f 15//8 16//8 14//8 13//8
f 10//9 9//9 13//9 14//9
f 9//10 11//10 15//10 13//10
f 12//11 10//11 14//11 16//11
f 11//12 12//12 16//12 15//12
o Plane.012
v -0.792401 -0.000060 -1.206353
v -0.745362 -0.000060 -1.206353
v -0.792401 -0.000060 -0.980447
v -0.745362 -0.000060 -0.980447
v -0.792401 0.237940 -1.206353
v -0.745362 0.237940 -1.206353
v -0.792401 0.237940 -0.980447
v -0.745362 0.237940 -0.980447
vn 0.0000 -1.0000 0.0000
vn 0.0000 1.0000 0.0000
vn 0.0000 0.0000 -1.0000
vn -1.0000 0.0000 0.0000
vn 1.0000 0.0000 -0.0000
vn -0.0000 0.0000 1.0000
usemtl Wall
s off
f 19//13 17//13 18//13 20//13
f 23//14 24//14 22//14 21//14
f 18//15 17//15 21//15 22//15
f 17//16 19//16 23//16 21//16
f 20//17 18//17 22//17 24//17
f 19//18 20//18 24//18 23//18
o Plane.011
v -0.524398 -0.000060 -0.801549
v -0.524398 -0.000060 -0.516967
v 0.303340 -0.000060 -1.206353
v 0.247589 -0.000060 -1.206353
v 0.303340 -0.000060 -0.499521
v 0.248617 -0.000060 -0.499521
v 0.248617 -0.000060 -0.762679
v 0.054135 -0.000060 -0.762679
v 0.054135 -0.000060 -0.520427
v -0.193409 -0.000060 -0.520427
v -0.193409 -0.000060 -0.288269
v -0.256166 -0.000060 -0.288269
v -0.254303 -0.000060 -0.516967
v -0.226365 -0.000060 -0.801549
v -0.226365 -0.000060 -0.748707
v -0.460094 -0.000060 -0.748707
v -0.460094 -0.000060 -0.572298
v 0.001911 -0.000060 -0.572298
v 0.001911 -0.000060 -0.808088
v 0.251113 -0.000060 -0.808088
v 0.251113 -0.000060 -0.980515
v -0.228214 -0.000060 -0.980515
v -0.228214 -0.000060 -1.029334
v 0.247588 -0.000060 -1.029334
v -0.524398 0.237940 -0.801549
v -0.524398 0.237940 -0.516967
v 0.303340 0.237940 -1.206353
v 0.247589 0.237940 -1.206353
v 0.303340 0.237940 -0.499521
v 0.248617 0.237940 -0.499521
v 0.248617 0.237940 -0.762679
v 0.054135 0.237940 -0.762679
v 0.054135 0.237940 -0.520427
v -0.193409 0.237940 -0.520427
v -0.193409 0.237940 -0.288269
v -0.256166 0.237940 -0.288269
v -0.254303 0.237940 -0.516967
v -0.226365 0.237940 -0.801549
v -0.226365 0.237940 -0.748707
v -0.460094 0.237940 -0.748707
v -0.460094 0.237940 -0.572298
v 0.001911 0.237940 -0.572298
v 0.001911 0.237940 -0.808088
v 0.251113 0.237940 -0.808088
v 0.251113 0.237940 -0.980515
v -0.228214 0.237940 -0.980515
v -0.228214 0.237940 -1.029334
v 0.247588 0.237940 -1.029334
vn 0.0000 -1.0000 -0.0000
vn 0.0000 1.0000 0.0000
vn -1.0000 0.0000 -0.0000
vn 0.0000 0.0000 -1.0000
vn 1.0000 0.0000 -0.0000
vn 0.0000 0.0000 1.0000
vn -1.0000 0.0000 -0.0081
usemtl Wall
s off
f 26//19 25//19 38//19 39//19 40//19 41//19 42//19 43//19 44//19 45//19 46//19 47//19 48//19 28//19 27//19 29//19 30//19 31//19 32//19 33//19 34//19 35//19 36//19 37//19
f 50//20 61//20 60//20 59//20 58//20 57//20 56//20 55//20 54//20 53//20 51//20 52//20 72//20 71//20 70//20 69//20 68//20 67//20 66//20 65//20 64//20 63//20 62//20 49//20
f 28//21 48//21 72//21 52//21
f 25//21 26//21 50//21 49//21
f 27//22 28//22 52//22 51//22
f 29//23 27//23 51//23 53//23
f 30//24 29//24 53//24 54//24
f 31//21 30//21 54//21 55//21
f 32//24 31//24 55//24 56//24
f 33//23 32//23 56//23 57//23
f 34//24 33//24 57//24 58//24
f 35//23 34//23 58//23 59//23
f 36//24 35//24 59//24 60//24
f 37//25 36//25 60//25 61//25
f 26//24 37//24 61//24 50//24
f 38//22 25//22 49//22 62//22
f 39//23 38//23 62//23 63//23
f 40//24 39//24 63//24 64//24
f 41//23 40//23 64//23 65//23
f 42//22 41//22 65//22 66//22
f 43//21 42//21 66//21 67//21
f 44//22 43//22 67//22 68//22
f 45//21 44//21 68//21 69//21
f 46//24 45//24 69//24 70//24
f 47//21 46//21 70//21 71//21
f 48//22 47//22 71//22 72//22
o Plane.010
v 0.732027 -0.000060 -1.206353
v 0.683265 -0.000060 -1.206353
v 0.032937 -0.000060 -0.048756
v 0.737370 -0.000060 -0.048756
v 0.732027 -0.000060 -0.989220
v 0.536845 -0.000060 -0.989220
v 0.536845 -0.000060 -0.811395
v 0.751307 -0.000060 -0.811395
v 0.751307 -0.000060 -0.755013
v 0.535110 -0.000060 -0.755708
v 0.535110 -0.000060 -0.368780
v 0.737523 -0.000060 -0.368780
v 0.737522 -0.000060 -0.295995
v 0.529601 -0.000060 -0.295995
v 0.529601 -0.000060 -0.100428
v 0.737370 -0.000060 -0.100428
v 0.032938 -0.000060 -0.334069
v 0.084848 -0.000060 -0.334069
v 0.084848 -0.000060 -0.107447
v 0.265136 -0.000060 -0.107448
v 0.265136 -0.000060 -0.274775
v 0.313828 -0.000060 -0.274775
v 0.313795 -0.000060 -0.103963
v 0.484609 -0.000060 -0.103963
v 0.484609 -0.000060 -1.048510
v 0.683265 -0.000060 -1.048510
v 0.732027 0.237940 -1.206353
v 0.683265 0.237940 -1.206353
v 0.032937 0.237940 -0.048756
v 0.737370 0.237940 -0.048756
v 0.732027 0.237940 -0.989220
v 0.536845 0.237940 -0.989220
v 0.536845 0.237940 -0.811395
v 0.751307 0.237940 -0.811395
v 0.751307 0.237940 -0.755013
v 0.535110 0.237940 -0.755708
v 0.535110 0.237940 -0.368780
v 0.737523 0.237940 -0.368780
v 0.737522 0.237940 -0.295995
v 0.529601 0.237940 -0.295995
v 0.529601 0.237940 -0.100428
v 0.737370 0.237940 -0.100428
v 0.032938 0.237940 -0.334069
v 0.084848 0.237940 -0.334069
v 0.084848 0.237940 -0.107447
v 0.265136 0.237940 -0.107448
v 0.265136 0.237940 -0.274775
v 0.313828 0.237940 -0.274775
v 0.313795 0.237940 -0.103963
v 0.484609 0.237940 -0.103963
v 0.484609 0.237940 -1.048510
v 0.683265 0.237940 -1.048510
vn 0.0000 -1.0000 0.0000
vn 0.0000 1.0000 0.0000
vn 0.0000 0.0000 -1.0000
vn 0.0000 0.0000 1.0000
vn 1.0000 0.0000 0.0000
vn -0.0032 0.0000 1.0000
vn -1.0000 0.0000 -0.0000
vn 1.0000 0.0000 0.0002
usemtl Wall
s off
f 74//26 73//26 77//26 78//26 79//26 80//26 81//26 82//26 83//26 84//26 85//26 86//26 87//26 88//26 76//26 75//26 89//26 90//26 91//26 92//26 93//26 94//26 95//26 96//26 97//26 98//26
f 100//27 124//27 123//27 122//27 121//27 120//27 119//27 118//27 117//27 116//27 115//27 101//27 102//27 114//27 113//27 112//27 111//27 110//27 109//27 108//27 107//27 106//27 105//27 104//27 103//27 99//27
f 73//28 74//28 100//28 99//28
f 75//29 76//29 102//29 101//29
f 77//30 73//30 99//30 103//30
f 78//29 77//29 103//29 104//29
f 79//30 78//30 104//30 105//30
f 80//28 79//28 105//28 106//28
f 81//30 80//30 106//30 107//30
f 82//31 81//31 107//31 108//31
f 83//30 82//30 108//30 109//30
f 84//28 83//28 109//28 110//28
f 85//30 84//30 110//30 111//30
f 86//29 85//29 111//29 112//29
f 87//30 86//30 112//30 113//30
f 88//28 87//28 113//28 114//28
f 76//30 88//30 114//30 102//30
f 89//32 75//32 101//32 115//32
f 90//28 89//28 115//28 116//28
f 91//30 90//30 116//30 117//30
f 92//28 91//28 117//28 118//28
f 93//32 92//32 118//32 119//32
f 94//28 93//28 119//28 120//28
f 95//33 94//33 120//33 121//33
f 96//28 95//28 121//28 122//28
f 97//32 96//32 122//32 123//32
f 98//28 97//28 123//28 124//28
f 74//32 98//32 124//32 100//32
o Plane.009
v 0.953341 -0.000060 -1.206353
v 0.894092 -0.000060 -1.206353
v 0.953341 -0.000060 -1.006639
v 0.894092 -0.000060 -1.006647
v 0.953341 0.237940 -1.206353
v 0.894092 0.237940 -1.206353
v 0.953341 0.237940 -1.006639
v 0.894092 0.237940 -1.006647
vn 0.0000 -1.0000 0.0000
vn 0.0000 1.0000 0.0000
vn 1.0000 0.0000 0.0000
vn -0.0001 0.0000 1.0000
vn -1.0000 0.0000 0.0000
vn 0.0000 0.0000 -1.0000
usemtl Wall
s off
f 126//34 125//34 127//34 128//34
f 130//35 132//35 131//35 129//35
f 127//36 125//36 129//36 131//36
f 128//37 127//37 131//37 132//37
f 126//38 128//38 132//38 130//38
f 125//39 126//39 130//39 129//39
o Plane.008
v 1.151502 -0.000060 -0.780627
v 1.151502 -0.000060 -0.833648
v 0.963467 -0.000060 -0.780627
v 0.963467 -0.000060 -0.316390
v 0.905768 -0.000060 -0.316390
v 0.905768 -0.000060 -0.539951
v 0.712296 -0.000060 -0.539951
v 0.712296 -0.000060 -0.590191
v 0.905768 -0.000060 -0.589914
v 0.905768 -0.000060 -0.833648
v 1.151502 0.237940 -0.780627
v 1.151502 0.237940 -0.833648
v 0.963467 0.237940 -0.780627
v 0.963467 0.237940 -0.316390
v 0.905768 0.237940 -0.316390
v 0.905768 0.237940 -0.539951
v 0.712296 0.237940 -0.539951
v 0.712296 0.237940 -0.590191
v 0.905768 0.237940 -0.589914
v 0.905768 0.237940 -0.833648
vn 0.0000 -1.0000 0.0000
vn 0.0000 1.0000 0.0000
vn 1.0000 0.0000 0.0000
vn 0.0000 0.0000 1.0000
vn -1.0000 0.0000 0.0000
vn 0.0014 0.0000 -1.0000
vn -0.0000 0.0000 -1.0000
usemtl Wall
s off
f 134//40 133//40 135//40 136//40 137//40 138//40 139//40 140//40 141//40 142//40
f 144//41 152//41 151//41 150//41 149//41 148//41 147//41 146//41 145//41 143//41
f 133//42 134//42 144//42 143//42
f 135//43 133//43 143//43 145//43
f 136//42 135//42 145//42 146//42
f 137//43 136//43 146//43 147//43
f 138//44 137//44 147//44 148//44
f 139//43 138//43 148//43 149//43
f 140//44 139//44 149//44 150//44
f 141//45 140//45 150//45 151//45
f 142//44 141//44 151//44 152//44
f 134//46 142//46 152//46 144//46
o Plane.007
v -0.524398 -0.000060 -1.206353
v -0.477359 -0.000060 -1.206353
v -0.524398 -0.000060 -0.980447
v -0.477359 -0.000060 -0.980447
v -0.524398 0.237940 -1.206353
v -0.477359 0.237940 -1.206353
v -0.524398 0.237940 -0.980447
v -0.477359 0.237940 -0.980447
vn 0.0000 -1.0000 -0.0000
vn 0.0000 1.0000 0.0000
vn -1.0000 0.0000 0.0000
vn 1.0000 0.0000 -0.0000
vn -0.0000 0.0000 1.0000
vn 0.0000 0.0000 -1.0000
usemtl Wall
s off
f 155//47 153//47 154//47 156//47
f 159//48 160//48 158//48 157//48
f 153//49 155//49 159//49 157//49
f 156//50 154//50 158//50 160//50
f 155//51 156//51 160//51 159//51
f 154//52 153//52 157//52 158//52
o Plane.006
v 0.258244 -0.000060 0.767972
v 1.151789 -0.000060 0.767972
v 0.258244 -0.000060 0.162903
v 0.979546 -0.000060 -0.105907
v 0.925848 -0.000060 -0.105907
v 1.151789 -0.000060 0.705463
v 0.705045 -0.000060 0.162903
v 0.705045 -0.000060 0.215662
v 0.315987 -0.000060 0.215662
v 0.315987 -0.000060 0.441460
v 0.925848 -0.000060 0.441460
v 0.979546 -0.000060 0.491644
v 0.574520 -0.000060 0.491644
v 0.574520 -0.000060 0.705463
v 0.323589 -0.000060 0.767972
v 0.516812 -0.000060 0.767972
v 0.516812 -0.000060 0.499150
v 0.323589 -0.000060 0.499162
v 0.258244 0.237940 0.767972
v 1.151789 0.237940 0.767972
v 0.258244 0.237940 0.162903
v 0.979546 0.237940 -0.105907
v 0.925848 0.237940 -0.105907
v 1.151789 0.237940 0.705463
v 0.705045 0.237940 0.162903
v 0.705045 0.237940 0.215662
v 0.315987 0.237940 0.215662
v 0.315987 0.237940 0.441460
v 0.925848 0.237940 0.441460
v 0.979546 0.237940 0.491644
v 0.574520 0.237940 0.491644
v 0.574520 0.237940 0.705463
v 0.323589 0.237940 0.767972
v 0.516812 0.237940 0.767972
v 0.516812 0.237940 0.499150
v 0.323589 0.237940 0.499162
vn 0.0000 -1.0000 0.0000
vn 0.0000 1.0000 -0.0000
vn -1.0000 0.0000 0.0000
vn 0.0000 0.0000 1.0000
vn 0.0000 0.0000 -1.0000
vn 1.0000 0.0000 0.0000
vn 0.0001 0.0000 1.0000
usemtl Wall
s off
f 161//53 163//53 167//53 168//53 169//53 170//53 171//53 165//53 164//53 172//53 173//53 174//53 166//53 162//53 176//53 177//53 178//53 175//53
f 179//54 193//54 196//54 195//54 194//54 180//54 184//54 192//54 191//54 190//54 182//54 183//54 189//54 188//54 187//54 186//54 185//54 181//54
f 163//55 161//55 179//55 181//55
f 176//56 162//56 180//56 194//56
f 164//57 165//57 183//57 182//57
f 162//58 166//58 184//58 180//58
f 167//57 163//57 181//57 185//57
f 168//58 167//58 185//58 186//58
f 169//56 168//56 186//56 187//56
f 170//58 169//58 187//58 188//58
f 171//57 170//57 188//57 189//57
f 165//55 171//55 189//55 183//55
f 172//58 164//58 182//58 190//58
f 173//56 172//56 190//56 191//56
f 174//58 173//58 191//58 192//58
f 166//57 174//57 192//57 184//57
f 161//56 175//56 193//56 179//56
f 177//55 176//55 194//55 195//55
f 178//59 177//59 195//59 196//59
f 175//58 178//58 196//58 193//58
o Plane.005
v 0.544576 -0.000060 1.011490
v -0.273806 -0.000060 0.428486
v -0.015179 -0.000060 1.011490
v -0.273806 -0.000060 0.481596
v -0.015179 -0.000060 0.481596
v 0.544576 -0.000060 0.966002
v 0.040028 -0.000060 0.428486
v 0.040028 -0.000060 0.966002
v 0.544576 0.237940 1.011490
v -0.273806 0.237940 0.428486
v -0.015179 0.237940 1.011490
v -0.273806 0.237940 0.481596
v -0.015179 0.237940 0.481596
v 0.544576 0.237940 0.966002
v 0.040028 0.237940 0.428486
v 0.040028 0.237940 0.966002
vn 0.0000 -1.0000 0.0000
vn 0.0000 1.0000 0.0000
vn 0.0000 0.0000 1.0000
vn 0.0000 0.0000 -1.0000
vn -1.0000 0.0000 0.0000
vn 1.0000 0.0000 0.0000
usemtl Wall
s off
f 200//60 198//60 203//60 204//60 202//60 197//60 199//60 201//60
f 208//61 209//61 207//61 205//61 210//61 212//61 211//61 206//61
f 199//62 197//62 205//62 207//62
f 203//63 198//63 206//63 211//63
f 198//64 200//64 208//64 206//64
f 200//62 201//62 209//62 208//62
f 201//64 199//64 207//64 209//64
f 197//65 202//65 210//65 205//65
f 204//65 203//65 211//65 212//65
f 202//63 204//63 212//63 210//63
o Plane.004
v -0.531498 -0.000060 1.201527
v -0.531498 -0.000060 0.750101
v -0.531498 -0.000060 0.953361
v -0.256034 -0.000060 0.750101
v -0.256034 -0.000060 0.953361
v -0.191695 -0.000060 -0.121319
v -0.256158 -0.000060 -0.121319
v -0.476906 -0.000060 1.201527
v -0.531498 -0.000060 0.185748
v -0.476906 -0.000060 1.016079
v -0.202820 -0.000060 1.016079
v -0.202821 -0.000060 0.704925
v -0.466869 -0.000060 0.704932
v -0.466869 -0.000060 0.242380
v 0.037603 -0.000060 0.242379
v 0.037603 -0.000060 0.190256
v -0.191694 -0.000060 0.190256
v -0.256158 -0.000060 0.185747
v -0.531498 0.237940 1.201527
v -0.531498 0.237940 0.750101
v -0.531498 0.237940 0.953361
v -0.256034 0.237940 0.750101
v -0.256034 0.237940 0.953361
v -0.191695 0.237940 -0.121319
v -0.256158 0.237940 -0.121319
v -0.476906 0.237940 1.201527
v -0.531498 0.237940 0.185748
v -0.476906 0.237940 1.016079
v -0.202820 0.237940 1.016079
v -0.202821 0.237940 0.704925
v -0.466869 0.237940 0.704932
v -0.466869 0.237940 0.242380
v 0.037603 0.237940 0.242379
v 0.037603 0.237940 0.190256
v -0.191694 0.237940 0.190256
v -0.256158 0.237940 0.185747
vn 0.0000 -1.0000 0.0000
vn 0.0000 1.0000 0.0000
vn 0.0000 0.0000 -1.0000
vn 0.0000 0.0000 1.0000
vn 1.0000 0.0000 0.0000
vn -1.0000 0.0000 0.0000
usemtl Wall
s off
f 213//66 215//66 217//66 216//66 214//66 221//66 230//66 219//66 218//66 229//66 228//66 227//66 226//66 225//66 224//66 223//66 222//66 220//66
f 231//67 238//67 240//67 241//67 242//67 243//67 244//67 245//67 246//67 247//67 236//67 237//67 248//67 239//67 232//67 234//67 235//67 233//67
f 218//68 219//68 237//68 236//68
f 213//69 220//69 238//69 231//69
f 220//70 222//70 240//70 238//70
f 222//69 223//69 241//69 240//69
f 223//70 224//70 242//70 241//70
f 224//68 225//68 243//68 242//68
f 225//70 226//70 244//70 243//70
f 226//69 227//69 245//69 244//69
f 227//70 228//70 246//70 245//70
f 228//68 229//68 247//68 246//68
f 229//70 218//70 236//70 247//70
f 219//71 230//71 248//71 237//71
f 230//68 221//68 239//68 248//68
f 215//71 213//71 231//71 233//71
f 221//71 214//71 232//71 239//71
f 214//69 216//69 234//69 232//69
f 216//71 217//71 235//71 234//71
f 217//68 215//68 233//68 235//68
o Plane.003
v -1.262392 -0.000060 1.015602
v -0.750043 -0.000060 1.015602
v -0.992270 -0.000060 0.188821
v -1.042807 -0.000060 0.188821
v -1.042807 -0.000060 0.739996
v -0.992270 -0.000060 0.739996
v -0.992270 -0.000060 0.497234
v -0.805796 -0.000060 0.497235
v -0.805796 -0.000060 0.963035
v -1.262392 -0.000060 0.963035
v -0.750043 -0.000060 0.441829
v -0.992270 -0.000060 0.441871
v -1.262392 0.237940 1.015602
v -0.750043 0.237940 1.015602
v -0.992270 0.237940 0.188821
v -1.042807 0.237940 0.188821
v -1.042807 0.237940 0.739996
v -0.992270 0.237940 0.739996
v -0.992270 0.237940 0.497234
v -0.805796 0.237940 0.497235
v -0.805796 0.237940 0.963035
v -1.262392 0.237940 0.963035
v -0.750043 0.237940 0.441829
v -0.992270 0.237940 0.441871
vn 0.0000 -1.0000 0.0000
vn 0.0000 1.0000 0.0000
vn 0.0000 0.0000 1.0000
vn 0.0000 0.0000 -1.0000
vn -1.0000 0.0000 0.0000
vn 1.0000 0.0000 0.0000
vn -0.0002 0.0000 -1.0000
usemtl Wall
s off
f 252//72 251//72 260//72 259//72 250//72 249//72 258//72 257//72 256//72 255//72 254//72 253//72
f 264//73 265//73 266//73 267//73 268//73 269//73 270//73 261//73 262//73 271//73 272//73 263//73
f 249//74 250//74 262//74 261//74
f 251//75 252//75 264//75 263//75
f 252//76 253//76 265//76 264//76
f 253//74 254//74 266//74 265//74
f 254//77 255//77 267//77 266//77
f 255//74 256//74 268//74 267//74
f 256//76 257//76 269//76 268//76
f 257//75 258//75 270//75 269//75
f 258//76 249//76 261//76 270//76
f 250//77 259//77 271//77 262//77
f 259//78 260//78 272//78 271//78
f 260//77 251//77 263//77 272//77
o Plane.002
v -1.264003 -0.000060 -0.794136
v -1.264003 -0.000060 -0.737364
v -0.751059 -0.000060 -0.794136
v -0.793750 -0.000060 0.198826
v -0.744913 -0.000060 0.198826
v -1.028983 -0.000060 -0.737364
v -1.028983 -0.000060 -0.515988
v -0.798452 -0.000060 -0.515988
v -0.798452 -0.000060 -0.315643
v -1.030758 -0.000060 -0.315643
v -1.030758 -0.000060 -0.268563
v -0.793754 -0.000060 -0.268596
v -0.793754 -0.000060 -0.075038
v -1.032658 -0.000060 -0.075038
v -1.032658 -0.000060 -0.022607
v -0.793749 -0.000060 -0.022607
v -0.744960 -0.000060 -0.270338
v -0.476504 -0.000060 -0.270338
v -0.476504 -0.000060 -0.043692
v -0.424283 -0.000060 -0.043692
v -0.424316 -0.000060 -0.322617
v -0.744960 -0.000060 -0.322617
v -0.744960 -0.000060 -0.554414
v -0.978531 -0.000060 -0.554414
v -0.978473 -0.000060 -0.733879
v -0.750188 -0.000060 -0.733879
v -1.264003 0.237940 -0.794136
v -1.264003 0.237940 -0.737364
v -0.751059 0.237940 -0.794136
v -0.793750 0.237940 0.198826
v -0.744913 0.237940 0.198826
v -1.028983 0.237940 -0.737364
v -1.028983 0.237940 -0.515988
v -0.798452 0.237940 -0.515988
v -0.798452 0.237940 -0.315643
v -1.030758 0.237940 -0.315643
v -1.030758 0.237940 -0.268563
v -0.793754 0.237940 -0.268596
v -0.793754 0.237940 -0.075038
v -1.032658 0.237940 -0.075038
v -1.032658 0.237940 -0.022607
v -0.793749 0.237940 -0.022607
v -0.744960 0.237940 -0.270338
v -0.476504 0.237940 -0.270338
v -0.476504 0.237940 -0.043692
v -0.424283 0.237940 -0.043692
v -0.424316 0.237940 -0.322617
v -0.744960 0.237940 -0.322617
v -0.744960 0.237940 -0.554414
v -0.978531 0.237940 -0.554414
v -0.978473 0.237940 -0.733879
v -0.750188 0.237940 -0.733879
vn 0.0000 -1.0000 0.0000
vn 0.0000 1.0000 -0.0000
vn 0.0000 0.0000 -1.0000
vn -1.0000 0.0000 0.0000
vn 0.0000 0.0000 1.0000
vn 0.0001 0.0000 1.0000
vn 1.0000 0.0000 -0.0001
vn 1.0000 0.0000 0.0000
vn 1.0000 0.0000 0.0003
vn 0.9999 0.0000 -0.0145
usemtl Wall
s off
f 274//79 273//79 275//79 298//79 297//79 296//79 295//79 294//79 293//79 292//79 291//79 290//79 289//79 277//79 276//79 288//79 287//79 286//79 285//79 284//79 283//79 282//79 281//79 280//79 279//79 278//79
f 300//80 304//80 305//80 306//80 307//80 308//80 309//80 310//80 311//80 312//80 313//80 314//80 302//80 303//80 315//80 316//80 317//80 318//80 319//80 320//80 321//80 322//80 323//80 324//80 301//80 299//80
f 275//81 273//81 299//81 301//81
f 273//82 274//82 300//82 299//82
f 276//83 277//83 303//83 302//83
f 274//83 278//83 304//83 300//83
f 278//82 279//82 305//82 304//82
f 279//83 280//83 306//83 305//83
f 280//82 281//82 307//82 306//82
f 281//81 282//81 308//81 307//81
f 282//82 283//82 309//82 308//82
f 283//84 284//84 310//84 309//84
f 284//82 285//82 311//82 310//82
f 285//81 286//81 312//81 311//81
f 286//82 287//82 313//82 312//82
f 287//83 288//83 314//83 313//83
f 288//82 276//82 302//82 314//82
f 277//85 289//85 315//85 303//85
f 289//83 290//83 316//83 315//83
f 290//82 291//82 317//82 316//82
f 291//83 292//83 318//83 317//83
f 292//85 293//85 319//85 318//85
f 293//81 294//81 320//81 319//81
f 294//86 295//86 321//86 320//86
f 295//81 296//81 322//81 321//81
f 296//87 297//87 323//87 322//87
f 297//83 298//83 324//83 323//83
f 298//88 275//88 301//88 324//88
o Plane.001
v -1.315839 0.000000 1.250001
v -1.265080 0.000000 1.249499
v -1.315839 0.000000 -1.259419
v -1.265080 0.000000 -1.259419
v -1.315839 0.000000 -1.211764
v -1.265080 0.000000 -1.211764
v 1.204158 0.000000 -1.259419
v 1.204158 0.000000 -1.211764
v 1.156479 0.000000 -1.259419
v 1.156479 0.000000 -1.211764
v 1.204158 0.000000 1.249582
v 1.156479 0.000000 1.249582
v 1.204158 0.000000 1.202757
v 1.156479 0.000000 1.202757
v -1.265080 0.000000 1.203226
v -1.315839 0.000000 1.201971
v -1.315839 0.238000 1.250001
v -1.265080 0.238000 1.249499
v -1.315839 0.238000 -1.259419
v -1.265080 0.238000 -1.259419
v -1.315839 0.238000 -1.211764
v -1.265080 0.238000 -1.211764
v 1.204158 0.238000 -1.259419
v 1.204158 0.238000 -1.211764
v 1.156479 0.238000 -1.259419
v 1.156479 0.238000 -1.211764
v 1.204158 0.238000 1.249582
v 1.156479 0.238000 1.249582
v 1.204158 0.238000 1.202757
v 1.156479 0.238000 1.202757
v -1.265080 0.238000 1.203226
v -1.315839 0.238000 1.201971
vn 0.0000 -1.0000 0.0000
vn 0.0000 1.0000 0.0000
vn 1.0000 0.0000 0.0000
vn -1.0000 0.0000 0.0000
vn -0.0002 0.0000 -1.0000
vn -0.0000 0.0000 1.0000
vn 0.0099 0.0000 1.0000
vn 0.0000 0.0000 -1.0000
usemtl Wall
s off
f 329//89 327//89 328//89 330//89
f 340//89 329//89 330//89 339//89
f 333//89 331//89 332//89 334//89
f 328//89 333//89 334//89 330//89
f 337//89 335//89 336//89 338//89
f 332//89 337//89 338//89 334//89
f 336//89 326//89 339//89 338//89
f 325//89 340//89 339//89 326//89
f 345//90 346//90 344//90 343//90
f 356//90 355//90 346//90 345//90
f 349//90 350//90 348//90 347//90
f 344//90 346//90 350//90 349//90
f 353//90 354//90 352//90 351//90
f 348//90 350//90 354//90 353//90
f 352//90 354//90 355//90 342//90
f 341//90 342//90 355//90 356//90
f 335//91 337//91 353//91 351//91
f 334//92 338//92 354//92 350//92
f 338//93 339//93 355//93 354//93
f 329//92 340//92 356//92 345//92
f 326//94 336//94 352//94 342//94
f 339//91 330//91 346//91 355//91
f 340//92 325//92 341//92 356//92
f 325//95 326//95 342//95 341//95
f 328//96 327//96 343//96 344//96
f 327//92 329//92 345//92 343//92
f 332//91 331//91 347//91 348//91
f 333//96 328//96 344//96 349//96
f 331//96 333//96 349//96 347//96
f 330//94 334//94 350//94 346//94
f 336//94 335//94 351//94 352//94
f 337//91 332//91 348//91 353//91
o Plane
v 1.151747 -0.000060 0.968508
v 1.151747 -0.000060 1.015547
v 0.993771 -0.000060 0.968508
v 0.993771 -0.000060 1.015547
v 1.151747 0.237940 0.968508
v 1.151747 0.237940 1.015547
v 0.993771 0.237940 0.968508
v 0.993771 0.237940 1.015547
vn 0.0000 -1.0000 0.0000
vn 0.0000 1.0000 0.0000
vn 1.0000 0.0000 0.0000
vn 0.0000 0.0000 -1.0000
vn 0.0000 0.0000 1.0000
vn -1.0000 0.0000 -0.0000
usemtl Wall
s off
f 359//97 357//97 358//97 360//97
f 363//98 364//98 362//98 361//98
f 358//99 357//99 361//99 362//99
f 357//100 359//100 363//100 361//100
f 360//101 358//101 362//101 364//101
f 359//102 360//102 364//102 363//102
